<svg width="332" height="44" viewBox="0 0 332 44" fill="none" xmlns="http://www.w3.org/2000/svg">
<g clip-path="url(#clip0_66_135)">
<path d="M33.991 22.4379H13.6473C8.65323 22.4379 4.60593 18.4205 4.60593 13.4633C4.60593 8.50605 8.65323 4.4886 13.6473 4.4886C18.6413 4.4886 22.6886 8.50605 22.6886 13.4633V17.9519C22.6886 19.1905 23.7017 20.1962 24.9496 20.1962H33.991C35.2388 20.1962 36.2519 19.1905 36.2519 17.9519C36.2519 8.03744 28.1548 0 18.1667 0C8.17858 0 0.0839844 8.03744 0.0839844 17.9493C0.0839844 27.8613 8.18113 35.8987 18.1667 35.8987H33.9884C35.2363 35.8987 36.2494 34.8931 36.2494 33.6544V24.6797C36.2494 23.441 35.2363 22.4354 33.9884 22.4354L33.991 22.4379Z" fill="url(#paint0_radial_66_135)"/>
<path d="M50.573 25.4549C51.0808 24.4164 51.7724 23.6185 52.6502 23.0587C53.5281 22.4989 54.5054 22.2202 55.5849 22.2202C56.5189 22.2202 57.3227 22.4051 57.999 22.7724C58.6752 23.1397 59.1984 23.6362 59.5684 24.2593V22.3899H64.3021V35.8355H59.5684V33.9661C59.1984 34.5892 58.6701 35.0857 57.9862 35.453C57.3023 35.8203 56.501 36.0052 55.5849 36.0052C54.5054 36.0052 53.5281 35.7265 52.6502 35.1667C51.7724 34.6069 51.0808 33.8039 50.573 32.7578C50.0651 31.7116 49.8125 30.4932 49.8125 29.1026C49.8125 27.7119 50.0651 26.4986 50.573 25.46V25.4549ZM58.8538 27.0609C58.3792 26.567 57.7948 26.3187 57.1032 26.3187C56.4117 26.3187 55.8069 26.5619 55.3399 27.0508C54.8729 27.5397 54.6407 28.2211 54.6407 29.1C54.6407 29.979 54.8729 30.6452 55.3399 31.1493C55.8069 31.6534 56.3938 31.9041 57.1032 31.9041C57.8127 31.9041 58.3792 31.6559 58.8538 31.162C59.3285 30.668 59.5658 29.979 59.5658 29.1C59.5658 28.2211 59.3285 27.5574 58.8538 27.0634V27.0609Z" fill="white"/>
<path d="M67.3767 20.4571C66.8689 20.0011 66.6162 19.4312 66.6162 18.7447C66.6162 18.0582 66.8689 17.4579 67.3767 16.9944C67.8845 16.5308 68.5556 16.3003 69.3927 16.3003C70.2297 16.3003 70.8779 16.5333 71.3857 16.9944C71.8935 17.4579 72.1462 18.0405 72.1462 18.7447C72.1462 19.4489 71.8935 20.0036 71.3857 20.4571C70.8779 20.913 70.2144 21.141 69.3927 21.141C68.571 21.141 67.8845 20.913 67.3767 20.4571ZM71.7353 22.3873V35.8328H67.0015V22.3873H71.7353Z" fill="white"/>
<path d="M81.1063 22.9369C81.8617 22.4885 82.6758 22.2656 83.5459 22.2656V27.276H82.219C81.188 27.276 80.425 27.4761 79.9248 27.8764C79.4246 28.2766 79.1771 28.9707 79.1771 29.9611V35.8327H74.4434V22.3872H79.1771V24.7607C79.7079 23.9932 80.351 23.3878 81.1089 22.9394L81.1063 22.9369Z" fill="white"/>
<path d="M87.7336 35.3871C86.7741 34.9793 86.0188 34.4195 85.465 33.7102C84.9087 32.9984 84.5999 32.1955 84.5361 31.3013H89.1244C89.1882 31.7319 89.3898 32.0688 89.7267 32.3069C90.0661 32.5475 90.4846 32.6666 90.9822 32.6666C91.3675 32.6666 91.6738 32.5855 91.9009 32.426C92.1254 32.2664 92.2377 32.0587 92.2377 31.8028C92.2377 31.4659 92.0514 31.2202 91.6814 31.0606C91.3114 30.9011 90.6989 30.7263 89.8466 30.5338C88.8794 30.3412 88.0756 30.1259 87.4325 29.8878C86.7895 29.6472 86.228 29.2571 85.7534 28.7125C85.2787 28.1704 85.0414 27.4333 85.0414 26.5087C85.0414 25.7108 85.2583 24.9863 85.6921 24.3404C86.126 23.6945 86.7665 23.1777 87.6112 22.7952C88.4558 22.4127 89.474 22.2202 90.6658 22.2202C92.4368 22.2202 93.8276 22.6508 94.8432 23.5146C95.8563 24.3784 96.4458 25.5132 96.6066 26.9191H92.3321C92.2505 26.4884 92.0616 26.1566 91.7656 25.9236C91.4671 25.6931 91.069 25.5765 90.5713 25.5765C90.186 25.5765 89.8925 25.6475 89.691 25.7918C89.4894 25.9362 89.3898 26.1363 89.3898 26.3922C89.3898 26.7114 89.5736 26.9545 89.9461 27.1242C90.3162 27.2914 90.9133 27.4637 91.7325 27.6385C92.7149 27.8462 93.5315 28.0792 94.1823 28.3325C94.833 28.5884 95.4046 29.0012 95.8971 29.5661C96.3871 30.1335 96.6346 30.9036 96.6346 31.8788C96.6346 32.6615 96.405 33.3657 95.9456 33.9889C95.4863 34.612 94.8356 35.1034 93.9909 35.4631C93.1462 35.8228 92.151 36.0027 91.0103 36.0027C89.7854 36.0027 88.6957 35.8 87.7387 35.3922L87.7336 35.3871Z" fill="white"/>
<path d="M118.964 22.3872L115.511 35.8327H110.198L108.315 27.6839L106.36 35.8327H101.072L97.6426 22.3872H102.351L103.872 31.3036L105.875 22.3872H110.946L113.023 31.3264L114.521 22.3872H118.964Z" fill="white"/>
<path d="M120.691 20.4571C120.183 20.0011 119.931 19.4312 119.931 18.7447C119.931 18.0582 120.183 17.4579 120.691 16.9944C121.199 16.5308 121.87 16.3003 122.707 16.3003C123.544 16.3003 124.192 16.5333 124.7 16.9944C125.208 17.4579 125.461 18.0405 125.461 18.7447C125.461 19.4489 125.208 20.0036 124.7 20.4571C124.192 20.913 123.529 21.141 122.707 21.141C121.885 21.141 121.199 20.913 120.691 20.4571ZM125.05 22.3873V35.8328H120.316V22.3873H125.05Z" fill="white"/>
<path d="M135.069 26.2932H132.943V35.8327H128.186V26.2932H126.714V22.3872H128.186V22.2681C128.186 20.5431 128.697 19.2208 129.72 18.3013C130.743 17.3818 132.211 16.9233 134.127 16.9233C134.512 16.9233 134.811 16.9309 135.02 16.9487V20.9509C134.89 20.9357 134.714 20.9281 134.489 20.9281C133.974 20.9281 133.596 21.0446 133.354 21.2752C133.111 21.5057 132.976 21.878 132.943 22.3897H135.069V26.2957V26.2932Z" fill="white"/>
<path d="M144.75 31.828V35.8303H142.699C139.238 35.8303 137.508 34.128 137.508 30.7261V26.2933H135.842V22.3873H137.508V19.1272H142.265V22.3873H144.727V26.2933H142.265V30.7996C142.265 31.1669 142.349 31.4303 142.518 31.5899C142.686 31.7495 142.972 31.8305 143.375 31.8305H144.75V31.828Z" fill="white"/>
</g>
<path d="M164.751 2V36" stroke="white"/>
<path d="M204.462 20.854V37H200.529V27.317L196.918 37H193.744L190.11 27.294V37H186.177V20.854H190.823L195.354 32.032L199.839 20.854H204.462ZM206.508 30.56C206.508 29.2413 206.754 28.0837 207.244 27.087C207.75 26.0903 208.433 25.3237 209.291 24.787C210.15 24.2503 211.108 23.982 212.166 23.982C213.071 23.982 213.861 24.166 214.535 24.534C215.225 24.902 215.754 25.385 216.122 25.983V24.166H220.055V37H216.122V35.183C215.739 35.781 215.202 36.264 214.512 36.632C213.838 37 213.048 37.184 212.143 37.184C211.101 37.184 210.15 36.9157 209.291 36.379C208.433 35.827 207.75 35.0527 207.244 34.056C206.754 33.044 206.508 31.8787 206.508 30.56ZM216.122 30.583C216.122 29.6017 215.846 28.8273 215.294 28.26C214.758 27.6927 214.098 27.409 213.316 27.409C212.534 27.409 211.867 27.6927 211.315 28.26C210.779 28.812 210.51 29.5787 210.51 30.56C210.51 31.5413 210.779 32.3233 211.315 32.906C211.867 33.4733 212.534 33.757 213.316 33.757C214.098 33.757 214.758 33.4733 215.294 32.906C215.846 32.3387 216.122 31.5643 216.122 30.583ZM230.721 24.028C232.223 24.028 233.419 24.5187 234.309 25.5C235.213 26.466 235.666 27.8 235.666 29.502V37H231.756V30.031C231.756 29.1723 231.533 28.5053 231.089 28.03C230.644 27.5547 230.046 27.317 229.295 27.317C228.543 27.317 227.945 27.5547 227.501 28.03C227.056 28.5053 226.834 29.1723 226.834 30.031V37H222.901V24.166H226.834V25.868C227.232 25.3007 227.769 24.856 228.444 24.534C229.118 24.1967 229.877 24.028 230.721 24.028ZM237.617 30.56C237.617 29.2413 237.862 28.0837 238.353 27.087C238.859 26.0903 239.541 25.3237 240.4 24.787C241.258 24.2503 242.217 23.982 243.275 23.982C244.179 23.982 244.969 24.166 245.644 24.534C246.334 24.902 246.863 25.385 247.231 25.983V24.166H251.164V37H247.231V35.183C246.847 35.781 246.311 36.264 245.621 36.632C244.946 37 244.156 37.184 243.252 37.184C242.209 37.184 241.258 36.9157 240.4 36.379C239.541 35.827 238.859 35.0527 238.353 34.056C237.862 33.044 237.617 31.8787 237.617 30.56ZM247.231 30.583C247.231 29.6017 246.955 28.8273 246.403 28.26C245.866 27.6927 245.207 27.409 244.425 27.409C243.643 27.409 242.976 27.6927 242.424 28.26C241.887 28.812 241.619 29.5787 241.619 30.56C241.619 31.5413 241.887 32.3233 242.424 32.906C242.976 33.4733 243.643 33.757 244.425 33.757C245.207 33.757 245.866 33.4733 246.403 32.906C246.955 32.3387 247.231 31.5643 247.231 30.583ZM258.885 23.982C259.79 23.982 260.579 24.166 261.254 24.534C261.944 24.902 262.473 25.385 262.841 25.983V24.166H266.774V36.977C266.774 38.1577 266.536 39.2233 266.061 40.174C265.601 41.14 264.888 41.9067 263.922 42.474C262.971 43.0413 261.783 43.325 260.357 43.325C258.456 43.325 256.915 42.8727 255.734 41.968C254.553 41.0787 253.879 39.8673 253.71 38.334H257.597C257.72 38.8247 258.011 39.208 258.471 39.484C258.931 39.7753 259.498 39.921 260.173 39.921C260.986 39.921 261.63 39.6833 262.105 39.208C262.596 38.748 262.841 38.0043 262.841 36.977V35.16C262.458 35.758 261.929 36.2487 261.254 36.632C260.579 37 259.79 37.184 258.885 37.184C257.827 37.184 256.869 36.9157 256.01 36.379C255.151 35.827 254.469 35.0527 253.963 34.056C253.472 33.044 253.227 31.8787 253.227 30.56C253.227 29.2413 253.472 28.0837 253.963 27.087C254.469 26.0903 255.151 25.3237 256.01 24.787C256.869 24.2503 257.827 23.982 258.885 23.982ZM262.841 30.583C262.841 29.6017 262.565 28.8273 262.013 28.26C261.476 27.6927 260.817 27.409 260.035 27.409C259.253 27.409 258.586 27.6927 258.034 28.26C257.497 28.812 257.229 29.5787 257.229 30.56C257.229 31.5413 257.497 32.3233 258.034 32.906C258.586 33.4733 259.253 33.757 260.035 33.757C260.817 33.757 261.476 33.4733 262.013 32.906C262.565 32.3387 262.841 31.5643 262.841 30.583ZM285.995 24.028C287.59 24.028 288.855 24.511 289.79 25.477C290.741 26.443 291.216 27.7847 291.216 29.502V37H287.306V30.031C287.306 29.203 287.084 28.5667 286.639 28.122C286.21 27.662 285.612 27.432 284.845 27.432C284.079 27.432 283.473 27.662 283.028 28.122C282.599 28.5667 282.384 29.203 282.384 30.031V37H278.474V30.031C278.474 29.203 278.252 28.5667 277.807 28.122C277.378 27.662 276.78 27.432 276.013 27.432C275.247 27.432 274.641 27.662 274.196 28.122C273.767 28.5667 273.552 29.203 273.552 30.031V37H269.619V24.166H273.552V25.776C273.951 25.2393 274.472 24.8177 275.116 24.511C275.76 24.189 276.489 24.028 277.301 24.028C278.267 24.028 279.126 24.235 279.877 24.649C280.644 25.063 281.242 25.6533 281.671 26.42C282.116 25.7147 282.722 25.1397 283.488 24.695C284.255 24.2503 285.091 24.028 285.995 24.028ZM306.065 30.376C306.065 30.744 306.042 31.1273 305.996 31.526H297.095C297.156 32.3233 297.409 32.9367 297.854 33.366C298.314 33.78 298.874 33.987 299.533 33.987C300.514 33.987 301.197 33.573 301.58 32.745H305.766C305.551 33.5883 305.16 34.3473 304.593 35.022C304.041 35.6967 303.343 36.2257 302.5 36.609C301.657 36.9923 300.714 37.184 299.671 37.184C298.414 37.184 297.294 36.9157 296.313 36.379C295.332 35.8423 294.565 35.0757 294.013 34.079C293.461 33.0823 293.185 31.917 293.185 30.583C293.185 29.249 293.453 28.0837 293.99 27.087C294.542 26.0903 295.309 25.3237 296.29 24.787C297.271 24.2503 298.398 23.982 299.671 23.982C300.913 23.982 302.017 24.2427 302.983 24.764C303.949 25.2853 304.7 26.029 305.237 26.995C305.789 27.961 306.065 29.088 306.065 30.376ZM302.04 29.341C302.04 28.6663 301.81 28.1297 301.35 27.731C300.89 27.3323 300.315 27.133 299.625 27.133C298.966 27.133 298.406 27.3247 297.946 27.708C297.501 28.0913 297.225 28.6357 297.118 29.341H302.04ZM315.96 24.028C317.463 24.028 318.659 24.5187 319.548 25.5C320.453 26.466 320.905 27.8 320.905 29.502V37H316.995V30.031C316.995 29.1723 316.773 28.5053 316.328 28.03C315.883 27.5547 315.285 27.317 314.534 27.317C313.783 27.317 313.185 27.5547 312.74 28.03C312.295 28.5053 312.073 29.1723 312.073 30.031V37H308.14V24.166H312.073V25.868C312.472 25.3007 313.008 24.856 313.683 24.534C314.358 24.1967 315.117 24.028 315.96 24.028ZM330.791 33.665V37H328.79C327.364 37 326.252 36.655 325.455 35.965C324.658 35.2597 324.259 34.1173 324.259 32.538V27.432H322.695V24.166H324.259V21.038H328.192V24.166H330.768V27.432H328.192V32.584C328.192 32.9673 328.284 33.2433 328.468 33.412C328.652 33.5807 328.959 33.665 329.388 33.665H330.791Z" fill="white"/>
<defs>
<radialGradient id="paint0_radial_66_135" cx="0" cy="0" r="1" gradientUnits="userSpaceOnUse" gradientTransform="translate(7.45153 4.65353) rotate(47.8531) scale(51.6452 51.685)">
<stop stop-color="#94FC70"/>
<stop offset="0.391038" stop-color="#3ACDF3"/>
<stop offset="0.768261" stop-color="#6055FF"/>
<stop offset="1" stop-color="#9C96F5"/>
</radialGradient>
<clipPath id="clip0_66_135">
<rect width="144.667" height="36" fill="white" transform="translate(0.0839844)"/>
</clipPath>
</defs>
</svg>
