<svg width="346" height="44" viewBox="0 0 346 44" fill="none" xmlns="http://www.w3.org/2000/svg">
<g clip-path="url(#clip0_66_135)">
<path d="M33.907 22.4379H13.5633C8.56925 22.4379 4.52195 18.4205 4.52195 13.4633C4.52195 8.50605 8.56925 4.4886 13.5633 4.4886C18.5573 4.4886 22.6046 8.50605 22.6046 13.4633V17.9519C22.6046 19.1905 23.6177 20.1962 24.8656 20.1962H33.907C35.1548 20.1962 36.1679 19.1905 36.1679 17.9519C36.1679 8.03744 28.0708 0 18.0827 0C8.0946 0 0 8.03744 0 17.9493C0 27.8613 8.09715 35.8987 18.0827 35.8987H33.9044C35.1523 35.8987 36.1654 34.8931 36.1654 33.6544V24.6797C36.1654 23.441 35.1523 22.4354 33.9044 22.4354L33.907 22.4379Z" fill="url(#paint0_radial_66_135)"/>
<path d="M50.489 25.4549C50.9968 24.4164 51.6884 23.6185 52.5662 23.0587C53.4441 22.4989 54.4214 22.2202 55.5009 22.2202C56.4349 22.2202 57.2387 22.4051 57.915 22.7724C58.5912 23.1397 59.1144 23.6362 59.4844 24.2593V22.3899H64.2181V35.8355H59.4844V33.9661C59.1144 34.5892 58.5861 35.0857 57.9022 35.453C57.2183 35.8203 56.417 36.0052 55.5009 36.0052C54.4214 36.0052 53.4441 35.7265 52.5662 35.1667C51.6884 34.6069 50.9968 33.8039 50.489 32.7578C49.9812 31.7116 49.7285 30.4932 49.7285 29.1026C49.7285 27.7119 49.9812 26.4986 50.489 25.46V25.4549ZM58.7699 27.0609C58.2952 26.567 57.7108 26.3187 57.0193 26.3187C56.3277 26.3187 55.7229 26.5619 55.2559 27.0508C54.7889 27.5397 54.5567 28.2211 54.5567 29.1C54.5567 29.979 54.7889 30.6452 55.2559 31.1493C55.7229 31.6534 56.3098 31.9041 57.0193 31.9041C57.7287 31.9041 58.2952 31.6559 58.7699 31.162C59.2445 30.668 59.4818 29.979 59.4818 29.1C59.4818 28.2211 59.2445 27.5574 58.7699 27.0634V27.0609Z" fill="white"/>
<path d="M67.2927 20.4571C66.7849 20.0011 66.5322 19.4312 66.5322 18.7447C66.5322 18.0582 66.7849 17.4579 67.2927 16.9944C67.8005 16.5308 68.4717 16.3003 69.3087 16.3003C70.1457 16.3003 70.7939 16.5333 71.3017 16.9944C71.8095 17.4579 72.0622 18.0405 72.0622 18.7447C72.0622 19.4489 71.8095 20.0036 71.3017 20.4571C70.7939 20.913 70.1304 21.141 69.3087 21.141C68.487 21.141 67.8005 20.913 67.2927 20.4571ZM71.6513 22.3873V35.8328H66.9176V22.3873H71.6513Z" fill="white"/>
<path d="M81.0224 22.9369C81.7777 22.4885 82.5918 22.2656 83.462 22.2656V27.276H82.135C81.104 27.276 80.341 27.4761 79.8408 27.8764C79.3407 28.2766 79.0931 28.9707 79.0931 29.9611V35.8327H74.3594V22.3872H79.0931V24.7607C79.6239 23.9932 80.267 23.3878 81.0249 22.9394L81.0224 22.9369Z" fill="white"/>
<path d="M87.6497 35.3871C86.6902 34.9793 85.9348 34.4195 85.381 33.7102C84.8247 32.9984 84.5159 32.1955 84.4521 31.3013H89.0404C89.1042 31.7319 89.3058 32.0688 89.6427 32.3069C89.9821 32.5475 90.4006 32.6666 90.8982 32.6666C91.2836 32.6666 91.5898 32.5855 91.8169 32.426C92.0415 32.2664 92.1537 32.0587 92.1537 31.8028C92.1537 31.4659 91.9675 31.2202 91.5974 31.0606C91.2274 30.9011 90.615 30.7263 89.7626 30.5338C88.7955 30.3412 87.9916 30.1259 87.3485 29.8878C86.7055 29.6472 86.144 29.2571 85.6694 28.7125C85.1947 28.1704 84.9574 27.4333 84.9574 26.5087C84.9574 25.7108 85.1743 24.9863 85.6082 24.3404C86.042 23.6945 86.6825 23.1777 87.5272 22.7952C88.3718 22.4127 89.39 22.2202 90.5818 22.2202C92.3528 22.2202 93.7436 22.6508 94.7592 23.5146C95.7723 24.3784 96.3618 25.5132 96.5226 26.9191H92.2482C92.1665 26.4884 91.9777 26.1566 91.6816 25.9236C91.3831 25.6931 90.985 25.5765 90.4874 25.5765C90.102 25.5765 89.8086 25.6475 89.607 25.7918C89.4054 25.9362 89.3058 26.1363 89.3058 26.3922C89.3058 26.7114 89.4896 26.9545 89.8622 27.1242C90.2322 27.2914 90.8293 27.4637 91.6485 27.6385C92.631 27.8462 93.4476 28.0792 94.0983 28.3325C94.749 28.5884 95.3206 29.0012 95.8132 29.5661C96.3031 30.1335 96.5507 30.9036 96.5507 31.8788C96.5507 32.6615 96.321 33.3657 95.8616 33.9889C95.4023 34.612 94.7516 35.1034 93.9069 35.4631C93.0622 35.8228 92.067 36.0027 90.9263 36.0027C89.7014 36.0027 88.6117 35.8 87.6548 35.3922L87.6497 35.3871Z" fill="white"/>
<path d="M118.88 22.3872L115.427 35.8327H110.114L108.231 27.6839L106.276 35.8327H100.988L97.5586 22.3872H102.267L103.788 31.3036L105.791 22.3872H110.862L112.939 31.3264L114.437 22.3872H118.88Z" fill="white"/>
<path d="M120.607 20.4571C120.099 20.0011 119.847 19.4312 119.847 18.7447C119.847 18.0582 120.099 17.4579 120.607 16.9944C121.115 16.5308 121.786 16.3003 122.623 16.3003C123.46 16.3003 124.108 16.5333 124.616 16.9944C125.124 17.4579 125.377 18.0405 125.377 18.7447C125.377 19.4489 125.124 20.0036 124.616 20.4571C124.108 20.913 123.445 21.141 122.623 21.141C121.801 21.141 121.115 20.913 120.607 20.4571ZM124.966 22.3873V35.8328H120.232V22.3873H124.966Z" fill="white"/>
<path d="M134.985 26.2932H132.859V35.8327H128.102V26.2932H126.63V22.3872H128.102V22.2681C128.102 20.5431 128.613 19.2208 129.636 18.3013C130.659 17.3818 132.127 16.9233 134.043 16.9233C134.428 16.9233 134.727 16.9309 134.936 16.9487V20.9509C134.806 20.9357 134.63 20.9281 134.405 20.9281C133.89 20.9281 133.512 21.0446 133.27 21.2752C133.027 21.5057 132.892 21.878 132.859 22.3897H134.985V26.2957V26.2932Z" fill="white"/>
<path d="M144.666 31.828V35.8303H142.615C139.154 35.8303 137.424 34.128 137.424 30.7261V26.2933H135.758V22.3873H137.424V19.1272H142.181V22.3873H144.643V26.2933H142.181V30.7996C142.181 31.1669 142.265 31.4303 142.434 31.5899C142.602 31.7495 142.888 31.8305 143.291 31.8305H144.666V31.828Z" fill="white"/>
</g>
<path d="M164.667 2V36" stroke="white"/>
<path d="M204.378 20.854V37H200.445V27.317L196.834 37H193.66L190.026 27.294V37H186.093V20.854H190.739L195.27 32.032L199.755 20.854H204.378ZM206.424 30.56C206.424 29.2413 206.67 28.0837 207.16 27.087C207.666 26.0903 208.349 25.3237 209.207 24.787C210.066 24.2503 211.024 23.982 212.082 23.982C212.987 23.982 213.777 24.166 214.451 24.534C215.141 24.902 215.67 25.385 216.038 25.983V24.166H219.971V37H216.038V35.183C215.655 35.781 215.118 36.264 214.428 36.632C213.754 37 212.964 37.184 212.059 37.184C211.017 37.184 210.066 36.9157 209.207 36.379C208.349 35.827 207.666 35.0527 207.16 34.056C206.67 33.044 206.424 31.8787 206.424 30.56ZM216.038 30.583C216.038 29.6017 215.762 28.8273 215.21 28.26C214.674 27.6927 214.014 27.409 213.232 27.409C212.45 27.409 211.783 27.6927 211.231 28.26C210.695 28.812 210.426 29.5787 210.426 30.56C210.426 31.5413 210.695 32.3233 211.231 32.906C211.783 33.4733 212.45 33.757 213.232 33.757C214.014 33.757 214.674 33.4733 215.21 32.906C215.762 32.3387 216.038 31.5643 216.038 30.583ZM230.637 24.028C232.139 24.028 233.335 24.5187 234.225 25.5C235.129 26.466 235.582 27.8 235.582 29.502V37H231.672V30.031C231.672 29.1723 231.449 28.5053 231.005 28.03C230.56 27.5547 229.962 27.317 229.211 27.317C228.459 27.317 227.861 27.5547 227.417 28.03C226.972 28.5053 226.75 29.1723 226.75 30.031V37H222.817V24.166H226.75V25.868C227.148 25.3007 227.685 24.856 228.36 24.534C229.034 24.1967 229.793 24.028 230.637 24.028ZM237.533 30.56C237.533 29.2413 237.778 28.0837 238.269 27.087C238.775 26.0903 239.457 25.3237 240.316 24.787C241.174 24.2503 242.133 23.982 243.191 23.982C244.095 23.982 244.885 24.166 245.56 24.534C246.25 24.902 246.779 25.385 247.147 25.983V24.166H251.08V37H247.147V35.183C246.763 35.781 246.227 36.264 245.537 36.632C244.862 37 244.072 37.184 243.168 37.184C242.125 37.184 241.174 36.9157 240.316 36.379C239.457 35.827 238.775 35.0527 238.269 34.056C237.778 33.044 237.533 31.8787 237.533 30.56ZM247.147 30.583C247.147 29.6017 246.871 28.8273 246.319 28.26C245.782 27.6927 245.123 27.409 244.341 27.409C243.559 27.409 242.892 27.6927 242.34 28.26C241.803 28.812 241.535 29.5787 241.535 30.56C241.535 31.5413 241.803 32.3233 242.34 32.906C242.892 33.4733 243.559 33.757 244.341 33.757C245.123 33.757 245.782 33.4733 246.319 32.906C246.871 32.3387 247.147 31.5643 247.147 30.583ZM258.801 23.982C259.706 23.982 260.495 24.166 261.17 24.534C261.86 24.902 262.389 25.385 262.757 25.983V24.166H266.69V36.977C266.69 38.1577 266.452 39.2233 265.977 40.174C265.517 41.14 264.804 41.9067 263.838 42.474C262.887 43.0413 261.699 43.325 260.273 43.325C258.372 43.325 256.831 42.8727 255.65 41.968C254.469 41.0787 253.795 39.8673 253.626 38.334H257.513C257.636 38.8247 257.927 39.208 258.387 39.484C258.847 39.7753 259.414 39.921 260.089 39.921C260.902 39.921 261.546 39.6833 262.021 39.208C262.512 38.748 262.757 38.0043 262.757 36.977V35.16C262.374 35.758 261.845 36.2487 261.17 36.632C260.495 37 259.706 37.184 258.801 37.184C257.743 37.184 256.785 36.9157 255.926 36.379C255.067 35.827 254.385 35.0527 253.879 34.056C253.388 33.044 253.143 31.8787 253.143 30.56C253.143 29.2413 253.388 28.0837 253.879 27.087C254.385 26.0903 255.067 25.3237 255.926 24.787C256.785 24.2503 257.743 23.982 258.801 23.982ZM262.757 30.583C262.757 29.6017 262.481 28.8273 261.929 28.26C261.392 27.6927 260.733 27.409 259.951 27.409C259.169 27.409 258.502 27.6927 257.95 28.26C257.413 28.812 257.145 29.5787 257.145 30.56C257.145 31.5413 257.413 32.3233 257.95 32.906C258.502 33.4733 259.169 33.757 259.951 33.757C260.733 33.757 261.392 33.4733 261.929 32.906C262.481 32.3387 262.757 31.5643 262.757 30.583ZM281.633 30.376C281.633 30.744 281.61 31.1273 281.564 31.526H272.663C272.725 32.3233 272.978 32.9367 273.422 33.366C273.882 33.78 274.442 33.987 275.101 33.987C276.083 33.987 276.765 33.573 277.148 32.745H281.334C281.12 33.5883 280.729 34.3473 280.161 35.022C279.609 35.6967 278.912 36.2257 278.068 36.609C277.225 36.9923 276.282 37.184 275.239 37.184C273.982 37.184 272.863 36.9157 271.881 36.379C270.9 35.8423 270.133 35.0757 269.581 34.079C269.029 33.0823 268.753 31.917 268.753 30.583C268.753 29.249 269.022 28.0837 269.558 27.087C270.11 26.0903 270.877 25.3237 271.858 24.787C272.84 24.2503 273.967 23.982 275.239 23.982C276.481 23.982 277.585 24.2427 278.551 24.764C279.517 25.2853 280.269 26.029 280.805 26.995C281.357 27.961 281.633 29.088 281.633 30.376ZM277.608 29.341C277.608 28.6663 277.378 28.1297 276.918 27.731C276.458 27.3323 275.883 27.133 275.193 27.133C274.534 27.133 273.974 27.3247 273.514 27.708C273.07 28.0913 272.794 28.6357 272.686 29.341H277.608ZM300.084 24.028C301.679 24.028 302.944 24.511 303.879 25.477C304.83 26.443 305.305 27.7847 305.305 29.502V37H301.395V30.031C301.395 29.203 301.173 28.5667 300.728 28.122C300.299 27.662 299.701 27.432 298.934 27.432C298.168 27.432 297.562 27.662 297.117 28.122C296.688 28.5667 296.473 29.203 296.473 30.031V37H292.563V30.031C292.563 29.203 292.341 28.5667 291.896 28.122C291.467 27.662 290.869 27.432 290.102 27.432C289.336 27.432 288.73 27.662 288.285 28.122C287.856 28.5667 287.641 29.203 287.641 30.031V37H283.708V24.166H287.641V25.776C288.04 25.2393 288.561 24.8177 289.205 24.511C289.849 24.189 290.578 24.028 291.39 24.028C292.356 24.028 293.215 24.235 293.966 24.649C294.733 25.063 295.331 25.6533 295.76 26.42C296.205 25.7147 296.811 25.1397 297.577 24.695C298.344 24.2503 299.18 24.028 300.084 24.028ZM320.154 30.376C320.154 30.744 320.131 31.1273 320.085 31.526H311.184C311.245 32.3233 311.498 32.9367 311.943 33.366C312.403 33.78 312.963 33.987 313.622 33.987C314.603 33.987 315.286 33.573 315.669 32.745H319.855C319.64 33.5883 319.249 34.3473 318.682 35.022C318.13 35.6967 317.432 36.2257 316.589 36.609C315.746 36.9923 314.803 37.184 313.76 37.184C312.503 37.184 311.383 36.9157 310.402 36.379C309.421 35.8423 308.654 35.0757 308.102 34.079C307.55 33.0823 307.274 31.917 307.274 30.583C307.274 29.249 307.542 28.0837 308.079 27.087C308.631 26.0903 309.398 25.3237 310.379 24.787C311.36 24.2503 312.487 23.982 313.76 23.982C315.002 23.982 316.106 24.2427 317.072 24.764C318.038 25.2853 318.789 26.029 319.326 26.995C319.878 27.961 320.154 29.088 320.154 30.376ZM316.129 29.341C316.129 28.6663 315.899 28.1297 315.439 27.731C314.979 27.3323 314.404 27.133 313.714 27.133C313.055 27.133 312.495 27.3247 312.035 27.708C311.59 28.0913 311.314 28.6357 311.207 29.341H316.129ZM330.049 24.028C331.551 24.028 332.747 24.5187 333.637 25.5C334.541 26.466 334.994 27.8 334.994 29.502V37H331.084V30.031C331.084 29.1723 330.861 28.5053 330.417 28.03C329.972 27.5547 329.374 27.317 328.623 27.317C327.871 27.317 327.273 27.5547 326.829 28.03C326.384 28.5053 326.162 29.1723 326.162 30.031V37H322.229V24.166H326.162V25.868C326.56 25.3007 327.097 24.856 327.772 24.534C328.446 24.1967 329.205 24.028 330.049 24.028ZM344.88 33.665V37H342.879C341.453 37 340.341 36.655 339.544 35.965C338.746 35.2597 338.348 34.1173 338.348 32.538V27.432H336.784V24.166H338.348V21.038H342.281V24.166H344.857V27.432H342.281V32.584C342.281 32.9673 342.373 33.2433 342.557 33.412C342.741 33.5807 343.047 33.665 343.477 33.665H344.88Z" fill="white"/>
<defs>
<radialGradient id="paint0_radial_66_135" cx="0" cy="0" r="1" gradientUnits="userSpaceOnUse" gradientTransform="translate(7.36754 4.65353) rotate(47.8531) scale(51.6452 51.685)">
<stop stop-color="#94FC70"/>
<stop offset="0.391038" stop-color="#3ACDF3"/>
<stop offset="0.768261" stop-color="#6055FF"/>
<stop offset="1" stop-color="#9C96F5"/>
</radialGradient>
<clipPath id="clip0_66_135">
<rect width="144.667" height="36" fill="white"/>
</clipPath>
</defs>
</svg>
