<svg width="66" height="66" viewBox="0 0 66 66" fill="none" xmlns="http://www.w3.org/2000/svg">
<circle cx="33" cy="33" r="33" fill="black" fill-opacity="0.2"/>
<path fill-rule="evenodd" clip-rule="evenodd" d="M37.1786 35.2561C37.0028 35.2693 36.0946 35.3235 34.0686 35.3235C32.4572 35.3235 31.3131 35.2752 30.9117 35.2561C24.6844 34.9822 20.0362 33.8981 20.0362 32.6002C20.0362 31.3023 24.6844 30.2197 30.9117 29.9414V34.1765C31.319 34.2058 32.485 34.2746 34.0964 34.2746C36.0301 34.2746 36.9984 34.1941 37.1728 34.1779V29.9443C43.3869 30.2212 48.0248 31.3052 48.0248 32.6002C48.0248 33.8952 43.3884 34.9792 37.1728 35.2546L37.1786 35.2561ZM37.1786 29.5063V25.7166H45.8509V19.9375H22.2394V25.7166H30.9103V29.5049C23.8626 29.8286 18.5625 31.2247 18.5625 32.8976C18.5625 34.5705 23.8626 35.9651 30.9103 36.2903V48.4345H37.1772V36.2859C44.2087 35.9622 49.5 34.5676 49.5 32.8961C49.5 31.2247 44.2131 29.8301 37.1772 29.5049L37.1786 29.5063Z" fill="white"/>
</svg>
