<svg width="340" height="55" viewBox="0 0 340 55" fill="none" xmlns="http://www.w3.org/2000/svg">
<g clip-path="url(#clip0_320_647)">
<path d="M41.7058 27.4242H16.683C10.5402 27.4242 5.56203 22.5139 5.56203 16.4551C5.56203 10.3963 10.5402 5.48607 16.683 5.48607C22.8257 5.48607 27.8039 10.3963 27.8039 16.4551V21.9412C27.8039 23.4551 29.05 24.6842 30.5849 24.6842H41.7058C43.2407 24.6842 44.4869 23.4551 44.4869 21.9412C44.4869 9.82353 34.5273 0 22.2419 0C9.95642 0 0 9.82353 0 21.9381C0 34.0526 9.95956 43.8762 22.2419 43.8762H41.7027C43.2376 43.8762 44.4837 42.6471 44.4837 41.1331V30.1641C44.4837 28.6502 43.2376 27.4211 41.7027 27.4211L41.7058 27.4242Z" fill="white"/>
<path d="M62.1024 31.1098C62.727 29.8405 63.5776 28.8652 64.6574 28.181C65.7372 27.4968 66.9393 27.1562 68.2671 27.1562C69.4159 27.1562 70.4046 27.3823 71.2364 27.8312C72.0682 28.2801 72.7117 28.8869 73.1668 29.6485V27.3637H78.9894V43.7971H73.1668V41.5123C72.7117 42.2739 72.0619 42.8807 71.2207 43.3296C70.3795 43.7785 69.3939 44.0045 68.2671 44.0045C66.9393 44.0045 65.7372 43.664 64.6574 42.9798C63.5776 42.2956 62.727 41.3141 62.1024 40.0355C61.4777 38.7569 61.167 37.2677 61.167 35.568C61.167 33.8683 61.4777 32.3854 62.1024 31.116V31.1098ZM72.2879 33.0727C71.7041 32.4689 70.9853 32.1655 70.1347 32.1655C69.284 32.1655 68.5401 32.4628 67.9657 33.0603C67.3913 33.6578 67.1057 34.4906 67.1057 35.5649C67.1057 36.6392 67.3913 37.4535 67.9657 38.0696C68.5401 38.6857 69.2621 38.9922 70.1347 38.9922C71.0073 38.9922 71.7041 38.6888 72.2879 38.085C72.8718 37.4813 73.1637 36.6392 73.1637 35.5649C73.1637 34.4906 72.8718 33.6795 72.2879 33.0758V33.0727Z" fill="white"/>
<path d="M82.7713 25.0024C82.1467 24.4451 81.8359 23.7485 81.8359 22.9095C81.8359 22.0705 82.1467 21.3367 82.7713 20.7702C83.3959 20.2036 84.2215 19.9219 85.251 19.9219C86.2805 19.9219 87.0778 20.2067 87.7024 20.7702C88.3271 21.3367 88.6378 22.0488 88.6378 22.9095C88.6378 23.7702 88.3271 24.4482 87.7024 25.0024C87.0778 25.5596 86.2617 25.8383 85.251 25.8383C84.2403 25.8383 83.3959 25.5596 82.7713 25.0024ZM88.1325 27.3615V43.7949H82.3099V27.3615H88.1325Z" fill="white"/>
<path d="M99.6584 28.0333C100.588 27.4853 101.589 27.2129 102.659 27.2129V33.3367H101.027C99.7589 33.3367 98.8203 33.5813 98.2051 34.0705C97.5899 34.5596 97.2854 35.4079 97.2854 36.6185V43.7949H91.4629V27.3615H97.2854V30.2624C97.9383 29.3243 98.7293 28.5844 99.6616 28.0364L99.6584 28.0333Z" fill="white"/>
<path d="M107.81 43.2491C106.63 42.7507 105.701 42.0665 105.019 41.1996C104.335 40.3296 103.955 39.3482 103.877 38.2553H109.521C109.599 38.7816 109.847 39.1934 110.261 39.4844C110.679 39.7785 111.194 39.9241 111.806 39.9241C112.28 39.9241 112.656 39.825 112.936 39.6299C113.212 39.4349 113.35 39.181 113.35 38.8683C113.35 38.4566 113.121 38.1563 112.666 37.9612C112.211 37.7662 111.457 37.5525 110.409 37.3172C109.219 37.0819 108.231 36.8188 107.44 36.5278C106.649 36.2336 105.958 35.7569 105.374 35.0912C104.79 34.4287 104.498 33.5278 104.498 32.3977C104.498 31.4225 104.765 30.5371 105.299 29.7476C105.832 28.9581 106.62 28.3265 107.659 27.859C108.698 27.3915 109.951 27.1562 111.416 27.1562C113.595 27.1562 115.305 27.6826 116.555 28.7383C117.801 29.794 118.526 31.181 118.724 32.8993H113.466C113.366 32.373 113.133 31.9674 112.769 31.6826C112.402 31.4008 111.912 31.2584 111.3 31.2584C110.826 31.2584 110.465 31.3451 110.217 31.5216C109.969 31.698 109.847 31.9426 109.847 32.2553C109.847 32.6454 110.073 32.9426 110.531 33.1501C110.986 33.3544 111.721 33.5649 112.729 33.7785C113.937 34.0324 114.941 34.3172 115.742 34.6268C116.542 34.9395 117.245 35.4442 117.851 36.1346C118.454 36.8281 118.758 37.7693 118.758 38.9612C118.758 39.9179 118.476 40.7785 117.911 41.5401C117.346 42.3018 116.545 42.9024 115.506 43.342C114.467 43.7816 113.243 44.0015 111.84 44.0015C110.334 44.0015 108.993 43.7538 107.816 43.2553L107.81 43.2491Z" fill="white"/>
<path d="M146.223 27.3613L141.976 43.7948H135.441L133.125 33.835L130.72 43.7948H124.217L119.998 27.3613H125.789L127.66 38.2592L130.124 27.3613H136.361L138.916 38.287L140.758 27.3613H146.223Z" fill="white"/>
<path d="M148.348 25.0024C147.724 24.4451 147.413 23.7485 147.413 22.9095C147.413 22.0705 147.724 21.3367 148.348 20.7702C148.973 20.2036 149.799 19.9219 150.828 19.9219C151.858 19.9219 152.655 20.2067 153.28 20.7702C153.904 21.3367 154.215 22.0488 154.215 22.9095C154.215 23.7702 153.904 24.4482 153.28 25.0024C152.655 25.5596 151.839 25.8383 150.828 25.8383C149.817 25.8383 148.973 25.5596 148.348 25.0024ZM153.71 27.3615V43.7949H147.887V27.3615H153.71Z" fill="white"/>
<path d="M166.032 32.1356H163.418V43.7951H157.567V32.1356H155.756V27.3616H157.567V27.2161C157.567 25.1077 158.195 23.4916 159.453 22.3678C160.712 21.244 162.517 20.6836 164.874 20.6836C165.348 20.6836 165.715 20.6929 165.973 20.7146V25.6062C165.813 25.5876 165.596 25.5783 165.32 25.5783C164.686 25.5783 164.221 25.7207 163.923 26.0025C163.625 26.2842 163.459 26.7393 163.418 27.3647H166.032V32.1387V32.1356Z" fill="white"/>
<path d="M177.941 38.9002V43.7918H175.417C171.161 43.7918 169.033 41.7113 169.033 37.5534V32.1355H166.983V27.3615H169.033V23.377H174.884V27.3615H177.913V32.1355H174.884V37.6432C174.884 38.0921 174.987 38.4141 175.195 38.6091C175.402 38.8042 175.753 38.9033 176.249 38.9033H177.941V38.9002Z" fill="white"/>
</g>
<path d="M193.941 44V12" stroke="white"/>
<path d="M226.716 30.672C226.716 31.8107 226.455 32.856 225.932 33.808C225.409 34.7413 224.607 35.4973 223.524 36.076C222.441 36.6547 221.097 36.944 219.492 36.944H216.524V44H211.736V24.344H219.492C221.06 24.344 222.385 24.6147 223.468 25.156C224.551 25.6973 225.363 26.444 225.904 27.396C226.445 28.348 226.716 29.44 226.716 30.672ZM219.128 33.136C220.043 33.136 220.724 32.9213 221.172 32.492C221.62 32.0627 221.844 31.456 221.844 30.672C221.844 29.888 221.62 29.2813 221.172 28.852C220.724 28.4227 220.043 28.208 219.128 28.208H216.524V33.136H219.128ZM227.977 36.16C227.977 34.5547 228.275 33.1453 228.873 31.932C229.489 30.7187 230.319 29.7853 231.365 29.132C232.41 28.4787 233.577 28.152 234.865 28.152C235.966 28.152 236.927 28.376 237.749 28.824C238.589 29.272 239.233 29.86 239.681 30.588V28.376H244.469V44H239.681V41.788C239.214 42.516 238.561 43.104 237.721 43.552C236.899 44 235.938 44.224 234.837 44.224C233.567 44.224 232.41 43.8973 231.365 43.244C230.319 42.572 229.489 41.6293 228.873 40.416C228.275 39.184 227.977 37.7653 227.977 36.16ZM239.681 36.188C239.681 34.9933 239.345 34.0507 238.673 33.36C238.019 32.6693 237.217 32.324 236.265 32.324C235.313 32.324 234.501 32.6693 233.829 33.36C233.175 34.032 232.849 34.9653 232.849 36.16C232.849 37.3547 233.175 38.3067 233.829 39.016C234.501 39.7067 235.313 40.052 236.265 40.052C237.217 40.052 238.019 39.7067 238.673 39.016C239.345 38.3253 239.681 37.3827 239.681 36.188ZM263.613 28.376L253.813 51.42H248.661L252.245 43.468L245.889 28.376H251.237L254.849 38.148L258.433 28.376H263.613ZM285 28.208C286.941 28.208 288.481 28.796 289.62 29.972C290.777 31.148 291.356 32.7813 291.356 34.872V44H286.596V35.516C286.596 34.508 286.325 33.7333 285.784 33.192C285.261 32.632 284.533 32.352 283.6 32.352C282.667 32.352 281.929 32.632 281.388 33.192C280.865 33.7333 280.604 34.508 280.604 35.516V44H275.844V35.516C275.844 34.508 275.573 33.7333 275.032 33.192C274.509 32.632 273.781 32.352 272.848 32.352C271.915 32.352 271.177 32.632 270.636 33.192C270.113 33.7333 269.852 34.508 269.852 35.516V44H265.064V28.376H269.852V30.336C270.337 29.6827 270.972 29.1693 271.756 28.796C272.54 28.404 273.427 28.208 274.416 28.208C275.592 28.208 276.637 28.46 277.552 28.964C278.485 29.468 279.213 30.1867 279.736 31.12C280.277 30.2613 281.015 29.5613 281.948 29.02C282.881 28.4787 283.899 28.208 285 28.208ZM309.153 35.936C309.153 36.384 309.125 36.8507 309.069 37.336H298.233C298.307 38.3067 298.615 39.0533 299.157 39.576C299.717 40.08 300.398 40.332 301.201 40.332C302.395 40.332 303.226 39.828 303.693 38.82H308.789C308.527 39.8467 308.051 40.7707 307.361 41.592C306.689 42.4133 305.839 43.0573 304.813 43.524C303.786 43.9907 302.638 44.224 301.369 44.224C299.838 44.224 298.475 43.8973 297.281 43.244C296.086 42.5907 295.153 41.6573 294.481 40.444C293.809 39.2307 293.473 37.812 293.473 36.188C293.473 34.564 293.799 33.1453 294.453 31.932C295.125 30.7187 296.058 29.7853 297.253 29.132C298.447 28.4787 299.819 28.152 301.369 28.152C302.881 28.152 304.225 28.4693 305.401 29.104C306.577 29.7387 307.491 30.644 308.145 31.82C308.817 32.996 309.153 34.368 309.153 35.936ZM304.253 34.676C304.253 33.8547 303.973 33.2013 303.413 32.716C302.853 32.2307 302.153 31.988 301.313 31.988C300.51 31.988 299.829 32.2213 299.269 32.688C298.727 33.1547 298.391 33.8173 298.261 34.676H304.253ZM320.918 28.208C322.748 28.208 324.204 28.8053 325.286 30C326.388 31.176 326.938 32.8 326.938 34.872V44H322.178V35.516C322.178 34.4707 321.908 33.6587 321.366 33.08C320.825 32.5013 320.097 32.212 319.182 32.212C318.268 32.212 317.54 32.5013 316.998 33.08C316.457 33.6587 316.186 34.4707 316.186 35.516V44H311.398V28.376H316.186V30.448C316.672 29.7573 317.325 29.216 318.146 28.824C318.968 28.4133 319.892 28.208 320.918 28.208ZM338.694 39.94V44H336.258C334.522 44 333.168 43.58 332.198 42.74C331.227 41.8813 330.742 40.4907 330.742 38.568V32.352H328.838V28.376H330.742V24.568H335.53V28.376H338.666V32.352H335.53V38.624C335.53 39.0907 335.642 39.4267 335.866 39.632C336.09 39.8373 336.463 39.94 336.986 39.94H338.694Z" fill="white"/>
<defs>
<clipPath id="clip0_320_647">
<rect width="177.941" height="44" fill="white"/>
</clipPath>
</defs>
</svg>
