<svg width="136" height="40" viewBox="0 0 136 40" fill="none" xmlns="http://www.w3.org/2000/svg">
<g clip-path="url(#clip0_376_1702)" filter="url(#filter0_d_376_1702)">
<path d="M33.997 24H16C11.5793 24 8 20.4207 8 16C8 11.5793 11.5793 8 16 8C20.4207 8 24 11.5793 24 16V20C24 21.1022 24.8948 21.997 26.003 21.997H34.003C35.1052 21.997 36 21.1022 36 20C36 11.1644 28.8356 4 20 4C11.1644 4 4 11.1644 4 20C4 28.8356 11.1644 36 20 36H34.003C35.1052 36 36 35.1052 36 33.997V25.997C36 24.8948 35.1052 24 34.003 24H33.997Z" fill="url(#paint0_linear_376_1702)"/>
<path d="M33.997 24H16C11.5793 24 8 20.4207 8 16C8 11.5793 11.5793 8 16 8C20.4207 8 24 11.5793 24 16V20C24 21.1022 24.8948 21.997 26.003 21.997H34.003C35.1052 21.997 36 21.1022 36 20C36 11.1644 28.8356 4 20 4C11.1644 4 4 11.1644 4 20C4 28.8356 11.1644 36 20 36H34.003C35.1052 36 36 35.1052 36 33.997V25.997C36 24.8948 35.1052 24 34.003 24H33.997Z" fill="white"/>
<path d="M48.6756 26.6905C49.1259 25.766 49.7363 25.0549 50.5126 24.5512C51.2889 24.0535 52.1541 23.8046 53.1082 23.8046C53.9319 23.8046 54.6489 23.9705 55.2474 24.2964C55.8459 24.6223 56.3081 25.0668 56.6341 25.6238V23.9586H60.8237V35.9409H56.6341V34.2757C56.3081 34.8327 55.84 35.2712 55.2356 35.6031C54.6311 35.929 53.92 36.0949 53.1082 36.0949C52.1541 36.0949 51.2889 35.8461 50.5126 35.3483C49.7363 34.8505 49.1259 34.1335 48.6756 33.2031C48.2252 32.2727 48 31.1823 48 29.9438C48 28.7053 48.2252 27.6209 48.6756 26.6964V26.6905ZM56.0059 28.1246C55.5852 27.686 55.0696 27.4609 54.4593 27.4609C53.8489 27.4609 53.3096 27.6801 52.9007 28.1127C52.4859 28.5453 52.2785 29.1557 52.2785 29.9379C52.2785 30.7201 52.4859 31.3127 52.9007 31.7631C53.3156 32.2135 53.8311 32.4386 54.4593 32.4386C55.0874 32.4386 55.5852 32.2194 56.0059 31.7749C56.4267 31.3364 56.6341 30.7201 56.6341 29.9379C56.6341 29.1557 56.4267 28.5631 56.0059 28.1246Z" fill="white"/>
<path d="M63.5437 22.2342C63.0934 21.8312 62.8682 21.3216 62.8682 20.7053C62.8682 20.089 63.0934 19.5616 63.5437 19.1468C63.9941 18.7319 64.5867 18.5245 65.3274 18.5245C66.0682 18.5245 66.643 18.7319 67.0874 19.1468C67.5378 19.5616 67.763 20.0771 67.763 20.7053C67.763 21.3334 67.5378 21.8253 67.0874 22.2342C66.6371 22.6371 66.0504 22.8445 65.3274 22.8445C64.6045 22.8445 63.9941 22.6431 63.5437 22.2342ZM67.4015 23.9527V35.9349H63.2119V23.9527H67.4015Z" fill="white"/>
<path d="M75.6863 24.4446C76.356 24.0475 77.073 23.846 77.8434 23.846V28.3083H76.67C75.7574 28.3083 75.0819 28.486 74.6434 28.8416C74.1989 29.1971 73.9797 29.8194 73.9797 30.7023V35.9349H69.79V23.9527H73.9797V26.0683C74.4478 25.3868 75.0167 24.8416 75.6863 24.4446Z" fill="white"/>
<path d="M81.5523 35.5438C80.7049 35.1823 80.0353 34.6846 79.5434 34.0505C79.0516 33.4164 78.779 32.6994 78.7197 31.9053H82.779C82.8382 32.2905 83.016 32.5868 83.3123 32.8001C83.6145 33.0135 83.982 33.1201 84.4205 33.1201C84.7642 33.1201 85.0308 33.049 85.2323 32.9068C85.4338 32.7646 85.5286 32.5809 85.5286 32.3498C85.5286 32.0475 85.3627 31.8283 85.0368 31.686C84.7108 31.5438 84.1657 31.3898 83.4131 31.2179C82.5597 31.046 81.8486 30.8564 81.2738 30.6431C80.7049 30.4298 80.2071 30.0801 79.7864 29.5942C79.3657 29.1083 79.1582 28.4564 79.1582 27.6268C79.1582 26.9157 79.3479 26.2698 79.7331 25.6949C80.1182 25.1201 80.6812 24.6579 81.4338 24.3142C82.1805 23.9705 83.0812 23.8046 84.136 23.8046C85.7005 23.8046 86.9331 24.1898 87.8338 24.9601C88.7286 25.7305 89.2501 26.7379 89.3923 27.9942H85.6116C85.5405 27.609 85.3745 27.3127 85.1079 27.1053C84.8412 26.8979 84.4916 26.7972 84.0531 26.7972C83.7094 26.7972 83.4486 26.8623 83.2708 26.9868C83.0931 27.1172 83.0042 27.2949 83.0042 27.5201C83.0042 27.8046 83.1701 28.0238 83.496 28.172C83.8219 28.3201 84.3494 28.4742 85.0783 28.6342C85.9494 28.8179 86.6723 29.0253 87.2471 29.2564C87.8219 29.4875 88.3316 29.849 88.7642 30.3586C89.1968 30.8623 89.416 31.5498 89.416 32.4209C89.416 33.1201 89.2145 33.7483 88.8057 34.2994C88.4027 34.8564 87.822 35.2949 87.0753 35.6149C86.3286 35.9349 85.4457 36.0949 84.4383 36.0949C83.3538 36.0949 82.3879 35.9112 81.5464 35.5498L81.5523 35.5438Z" fill="white"/>
<path d="M109.186 23.9527L106.128 35.9349H101.428L99.7633 28.6697L98.0329 35.9349H93.3515L90.3174 23.9527H94.4833L95.8285 31.8994L97.6003 23.9527H102.086L103.923 31.9231L105.251 23.9527H109.18H109.186Z" fill="white"/>
<path d="M110.714 22.2342C110.263 21.8312 110.038 21.3216 110.038 20.7053C110.038 20.089 110.263 19.5616 110.714 19.1468C111.164 18.7319 111.757 18.5245 112.497 18.5245C113.238 18.5245 113.813 18.7319 114.257 19.1468C114.708 19.5616 114.933 20.0771 114.933 20.7053C114.933 21.3334 114.708 21.8253 114.257 22.2342C113.807 22.6371 113.22 22.8445 112.497 22.8445C111.774 22.8445 111.164 22.6431 110.714 22.2342ZM114.571 23.9527V35.9349H110.382V23.9527H114.571Z" fill="white"/>
<path d="M123.431 27.4372H121.552V35.9409H117.345V27.4372H116.041V23.9527H117.345V23.846C117.345 22.3053 117.795 21.132 118.702 20.3083C119.608 19.4846 120.906 19.0816 122.601 19.0816C122.945 19.0816 123.205 19.0875 123.389 19.1053V22.6727C123.277 22.6609 123.117 22.649 122.921 22.649C122.465 22.649 122.133 22.7498 121.92 22.9572C121.706 23.1646 121.582 23.4964 121.558 23.9527H123.437V27.4372H123.431Z" fill="white"/>
<path d="M132 32.3734V35.9408H130.186C127.123 35.9408 125.594 34.4238 125.594 31.3897V27.4371H124.118V23.9527H125.594V21.049H129.801V23.9527H131.982V27.4371H129.801V31.4549C129.801 31.7808 129.878 32.0178 130.026 32.1601C130.174 32.3023 130.429 32.3734 130.785 32.3734H132Z" fill="white"/>
</g>
<defs>
<filter id="filter0_d_376_1702" x="0" y="0" width="136" height="40" filterUnits="userSpaceOnUse" color-interpolation-filters="sRGB">
<feFlood flood-opacity="0" result="BackgroundImageFix"/>
<feColorMatrix in="SourceAlpha" type="matrix" values="0 0 0 0 0 0 0 0 0 0 0 0 0 0 0 0 0 0 127 0" result="hardAlpha"/>
<feOffset/>
<feGaussianBlur stdDeviation="2"/>
<feComposite in2="hardAlpha" operator="out"/>
<feColorMatrix type="matrix" values="0 0 0 0 0 0 0 0 0 0 0 0 0 0 0 0 0 0 0.25 0"/>
<feBlend mode="normal" in2="BackgroundImageFix" result="effect1_dropShadow_376_1702"/>
<feBlend mode="normal" in="SourceGraphic" in2="effect1_dropShadow_376_1702" result="shape"/>
</filter>
<linearGradient id="paint0_linear_376_1702" x1="6.66667" y1="7.55556" x2="38.0741" y2="38.0741" gradientUnits="userSpaceOnUse">
<stop stop-color="#CFFB70"/>
<stop offset="0.463542" stop-color="#5BC3E1"/>
<stop offset="1" stop-color="#804CD8"/>
</linearGradient>
<clipPath id="clip0_376_1702">
<rect width="128" height="32" fill="white" transform="translate(4 4)"/>
</clipPath>
</defs>
</svg>
