<svg width="100" height="52" viewBox="0 0 100 52" fill="none" xmlns="http://www.w3.org/2000/svg">
<path fill-rule="evenodd" clip-rule="evenodd" d="M59.5524 13.6359C59.268 13.6359 58.9835 13.5313 58.7669 13.3233L53.1213 7.9036C52.8818 7.7079 52.73 7.41631 52.73 7.09082C52.73 6.76542 52.8817 6.4739 53.1211 6.27819L58.7669 0.858271C59.2013 0.441205 59.9035 0.441205 60.338 0.858271C60.7724 1.27534 60.7724 1.94947 60.338 2.36654L56.528 6.02415H98.8889C99.5033 6.02415 100 6.50202 100 7.09082V50.3879C100 50.9777 99.5033 51.4545 98.8889 51.4545H1.11111C0.497778 51.4545 0 50.9777 0 50.3879V7.09082C0 6.50202 0.497778 6.02415 1.11111 6.02415H43.8878C44.5011 6.02415 44.9989 6.50202 44.9989 7.09082C44.9989 7.67962 44.5011 8.15749 43.8878 8.15749H2.22222V49.3212H97.7778V8.15749H56.528L60.338 11.8151C60.7724 12.2321 60.7724 12.9063 60.338 13.3233C60.1202 13.5324 59.8369 13.6359 59.5524 13.6359ZM37.216 28.7399C37.216 35.5036 42.9482 41.0065 49.9938 41.0065C57.0393 41.0065 62.7715 35.5036 62.7715 28.7399C62.7715 21.9761 57.0393 16.4732 49.9938 16.4732C42.9482 16.4732 37.216 21.9761 37.216 28.7399ZM39.4382 28.7399C39.4382 23.1527 44.1738 18.6065 49.9938 18.6065C55.8138 18.6065 60.5493 23.1527 60.5493 28.7399C60.5493 34.3271 55.8138 38.8732 49.9938 38.8732C44.1738 38.8732 39.4382 34.3271 39.4382 28.7399ZM18.6565 41.0064H35.0921C35.7066 41.0064 36.2032 40.5296 36.2032 39.9398C36.2032 39.3499 35.7054 38.8731 35.0921 38.8731H19.6954C19.2199 35.5579 16.4865 32.9243 13.0377 32.4528V25.0246C16.4565 24.5552 19.1799 21.9515 19.6843 18.6704H35.0921C35.7054 18.6704 36.2032 18.1926 36.2032 17.6038C36.2032 17.015 35.7054 16.5371 35.0921 16.5371H18.6565C18.0454 16.5371 17.5488 17.0118 17.5454 17.5984C17.5299 20.5584 15.0099 22.967 11.9265 22.967C11.3132 22.967 10.8154 23.4448 10.8154 24.0336V33.4448C10.8154 34.0347 11.3132 34.5115 11.9265 34.5115C15.0254 34.5115 17.5465 36.9318 17.5454 39.9398C17.5454 40.5296 18.0432 41.0064 18.6565 41.0064ZM81.3249 41.0065H64.8904C64.276 41.0065 63.7793 40.5298 63.7793 39.9399C63.7793 39.35 64.276 38.8732 64.8904 38.8732H80.2915C80.7804 35.5729 83.5082 32.9564 86.9437 32.486V25.0578C83.5071 24.5884 80.7804 21.9708 80.2915 18.6716H64.8904C64.276 18.6716 63.7793 18.1938 63.7793 17.605C63.7793 17.0162 64.276 16.5383 64.8904 16.5383H81.3249C81.9393 16.5383 82.436 17.0162 82.436 17.605C82.436 20.5799 84.9571 23.0001 88.056 23.0001C88.6704 23.0001 89.1671 23.478 89.1671 24.0668V33.478C89.1671 34.0679 88.6704 34.5447 88.056 34.5447C84.9571 34.5447 82.436 36.966 82.436 39.9409C82.436 40.5297 81.9393 41.0065 81.3249 41.0065Z" fill="url(#paint0_linear_537_1610)"/>
<defs>
<linearGradient id="paint0_linear_537_1610" x1="99" y1="4.54546" x2="64.9182" y2="83.7651" gradientUnits="userSpaceOnUse">
<stop stop-color="#8DFE59"/>
<stop offset="0.539062" stop-color="#3ACBF6"/>
<stop offset="1" stop-color="#6055FF"/>
</linearGradient>
</defs>
</svg>
