<svg width="32" height="32" viewBox="0 0 32 32" fill="none" xmlns="http://www.w3.org/2000/svg">
<circle cx="16" cy="16" r="16" fill="url(#paint0_linear_875_2258)"/>
<path d="M17.3451 17.1987H22.8322C22.9492 17.1987 23.0044 17.1987 23.0129 17.0428C23.0577 16.4755 23.0577 15.9049 23.0129 15.3369C23.0129 15.2266 22.959 15.181 22.8413 15.181H11.9211C11.7859 15.181 11.7495 15.2266 11.7495 15.3554V16.988C11.7495 17.1987 11.7495 17.1987 11.9659 17.1987H17.3451ZM22.4001 13.273C22.4157 13.2314 22.4157 13.1858 22.4001 13.1449C22.3085 12.9421 22.2 12.7486 22.0739 12.567C21.8841 12.2566 21.6606 11.9706 21.4059 11.7137C21.2857 11.5585 21.1466 11.4191 20.9906 11.3009C20.2096 10.6253 19.281 10.1471 18.2828 9.9067C17.7792 9.79178 17.2646 9.73697 16.7486 9.74159H11.9022C11.7671 9.74159 11.7489 9.79641 11.7489 9.91595V13.1719C11.7489 13.3093 11.7489 13.3463 11.9204 13.3463H22.3351C22.3351 13.3463 22.4254 13.3278 22.4436 13.273H22.3995H22.4001ZM22.4001 19.1067C22.2467 19.0895 22.0921 19.0895 21.9387 19.1067H11.9302C11.795 19.1067 11.7495 19.1067 11.7495 19.2903V22.4736C11.7495 22.6202 11.7495 22.6572 11.9302 22.6572H16.5511C16.772 22.6744 16.9929 22.6586 17.2093 22.6117C17.8799 22.5628 18.5395 22.4149 19.1685 22.1711C19.3973 22.0906 19.6182 21.9856 19.8268 21.8594H19.8898C20.9731 21.2868 21.853 20.3873 22.4079 19.283C22.4079 19.283 22.4709 19.1443 22.4001 19.108V19.1067ZM9.93587 24.3077V24.2529V22.1157V21.3912V19.2355C9.93587 19.1159 9.93587 19.0981 9.79161 19.0981H7.83305C7.72453 19.0981 7.67969 19.0981 7.67969 18.9515V17.2086H9.77341C9.89038 17.2086 9.93587 17.2086 9.93587 17.0527V15.3283C9.93587 15.218 9.93587 15.1909 9.79161 15.1909H7.83305C7.72453 15.1909 7.67969 15.1909 7.67969 15.0443V13.4302C7.67969 13.3291 7.67969 13.302 7.82395 13.302H9.76432C9.89948 13.302 9.93587 13.302 9.93587 13.1277V8.1836C9.93587 8.03699 9.93587 8 10.1165 8H16.8851C17.3763 8.01981 17.8643 8.07463 18.3472 8.16511C19.342 8.35202 20.2979 8.71328 21.1719 9.22909C21.7516 9.57582 22.2851 9.99454 22.7601 10.4767C23.1175 10.8538 23.4398 11.2619 23.7257 11.6965C24.0097 12.137 24.2456 12.6079 24.4308 13.0999C24.4535 13.2281 24.5744 13.3146 24.7005 13.2928H26.3159C26.5232 13.2928 26.5232 13.2928 26.5323 13.4949V14.9994C26.5323 15.146 26.4784 15.183 26.3335 15.183H25.0878C24.9617 15.183 24.9253 15.183 24.9344 15.3481C24.9838 15.9068 24.9838 16.4676 24.9344 17.0263C24.9344 17.1822 24.9344 17.2006 25.1066 17.2006H26.5317C26.5947 17.2832 26.5317 17.3658 26.5317 17.449C26.5408 17.5553 26.5408 17.663 26.5317 17.7693V18.8795C26.5317 19.0354 26.4868 19.0816 26.351 19.0816H24.6452C24.5263 19.0585 24.4107 19.1357 24.3834 19.2559C23.9772 20.3292 23.3274 21.2914 22.4878 22.0628C22.1811 22.3435 21.8588 22.6077 21.5222 22.8514C21.1609 23.0627 20.8093 23.2827 20.4389 23.457C19.7573 23.7688 19.0425 23.9986 18.3088 24.1446C17.6122 24.2714 16.9059 24.3288 16.1969 24.3189H9.93327V24.3097L9.93587 24.3077Z" fill="white"/>
<defs>
<linearGradient id="paint0_linear_875_2258" x1="39.04" y1="7.68" x2="22.8571" y2="38.1832" gradientUnits="userSpaceOnUse">
<stop stop-color="#8DFE59"/>
<stop offset="0.539062" stop-color="#3ACBF6"/>
<stop offset="1" stop-color="#6055FF"/>
</linearGradient>
</defs>
</svg>
