<svg width="144" height="95" viewBox="0 0 144 95" fill="none" xmlns="http://www.w3.org/2000/svg">
<path fill-rule="evenodd" clip-rule="evenodd" d="M132.875 27.2218C136.706 25.3611 139.307 23.2066 140.723 21C141.577 19.6679 142 18.3168 142 17C142 13.5018 139.018 9.76215 132.875 6.7782C126.868 3.86068 118.43 2 109 2C99.5703 2 91.1317 3.86068 85.1251 6.7782C78.9817 9.76215 76 13.5018 76 17C76 20.4982 78.9817 24.2379 85.1251 27.2218C91.1317 30.1393 99.5703 32 109 32C118.43 32 126.868 30.1393 132.875 27.2218ZM109 34C123.926 34 136.67 29.4616 141.702 23.0709C141.901 23.7179 142 24.363 142 25C142 26.3168 141.577 27.6679 140.723 29C139.307 31.2066 136.706 33.3611 132.875 35.2218C126.868 38.1393 118.43 40 109 40C99.5703 40 91.1317 38.1393 85.1251 35.2218C78.9817 32.2379 76 28.4982 76 25C76 24.363 76.0989 23.7179 76.2977 23.0709C81.3295 29.4616 94.0736 34 109 34ZM141.702 31.0709C136.67 37.4616 123.926 42 109 42C94.0736 42 81.3295 37.4616 76.2977 31.0709C76.0989 31.7179 76 32.363 76 33C76 36.4982 78.9817 40.2379 85.1251 43.2218C91.1317 46.1393 99.5703 48 109 48C118.43 48 126.868 46.1393 132.875 43.2218C136.706 41.3611 139.307 39.2066 140.723 37C141.577 35.6679 142 34.3168 142 33C142 32.363 141.901 31.7179 141.702 31.0709ZM109 50C123.926 50 136.67 45.4616 141.702 39.0709C141.901 39.7179 142 40.363 142 41C142 42.3168 141.577 43.6679 140.723 45C139.307 47.2066 136.706 49.3611 132.875 51.2218C126.868 54.1393 118.43 56 109 56C99.5703 56 91.1317 54.1393 85.1251 51.2218C78.9817 48.2379 76 44.4982 76 41C76 40.363 76.0989 39.7179 76.2977 39.0709C81.3295 45.4616 94.0736 50 109 50ZM141.702 47.0709C136.67 53.4616 123.926 58 109 58C94.0736 58 81.3295 53.4616 76.2977 47.0709C76.0989 47.7179 76 48.363 76 49C76 52.4982 78.9817 56.2379 85.1251 59.2218C91.1317 62.1393 99.5703 64 109 64C118.43 64 126.868 62.1393 132.875 59.2218C139.018 56.2379 142 52.4982 142 49C142 48.363 141.901 47.7179 141.702 47.0709ZM74.9744 45C74.3374 46.2828 74 47.6222 74 49C74 58.3888 89.67 66 109 66C128.33 66 144 58.3888 144 49C144 47.6222 143.663 46.2828 143.026 45C143.663 43.7172 144 42.3778 144 41C144 39.6222 143.663 38.2828 143.026 37C143.663 35.7172 144 34.3778 144 33C144 31.6222 143.663 30.2828 143.026 29C143.663 27.7172 144 26.3778 144 25C144 23.6222 143.663 22.2828 143.026 21C143.663 19.7172 144 18.3778 144 17C144 7.61116 128.33 0 109 0C89.67 0 74 7.61116 74 17C74 18.3778 74.3374 19.7172 74.9744 21C74.3374 22.2828 74 23.6222 74 25C74 26.3778 74.3374 27.7172 74.9744 29C74.3374 30.2828 74 31.6222 74 33C74 34.3778 74.3374 35.7172 74.9744 37C74.3374 38.2828 74 39.6222 74 41C74 42.3778 74.3374 43.7172 74.9744 45ZM68 46C68 47.3168 67.5775 48.6679 66.7228 50C65.3072 52.2066 62.7057 54.3611 58.8749 56.2218C52.8683 59.1393 44.4297 61 35 61C25.5703 61 17.1317 59.1393 11.1251 56.2218C7.29426 54.3611 4.69284 52.2066 3.27715 50C2.42251 48.6679 2 47.3168 2 46C2 42.5018 4.98166 38.7621 11.1251 35.7782C17.1317 32.8607 25.5703 31 35 31C44.4297 31 52.8683 32.8607 58.8749 35.7782C65.0183 38.7621 68 42.5018 68 46ZM70 46C70 47.3778 69.6626 48.7172 69.0256 50C69.6626 51.2828 70 52.6222 70 54C70 55.3778 69.6626 56.7172 69.0256 58C69.6626 59.2828 70 60.6222 70 62C70 63.3778 69.6626 64.7172 69.0256 66C69.6626 67.2828 70 68.6222 70 70C70 71.3778 69.6626 72.7172 69.0256 74C69.6626 75.2828 70 76.6222 70 78C70 87.3888 54.33 95 35 95C15.67 95 0 87.3888 0 78C0 76.6222 0.337436 75.2828 0.974358 74C0.337436 72.7172 0 71.3778 0 70C0 68.6222 0.337436 67.2828 0.974358 66C0.337436 64.7172 0 63.3778 0 62C0 60.6222 0.337436 59.2828 0.974358 58C0.337436 56.7172 0 55.3778 0 54C0 52.6222 0.337436 51.2828 0.974358 50C0.337436 48.7172 0 47.3778 0 46C0 36.6112 15.67 29 35 29C54.33 29 70 36.6112 70 46ZM2.29772 76.0709C2.09888 76.7179 2 77.363 2 78C2 81.4982 4.98166 85.2379 11.1251 88.2218C17.1317 91.1393 25.5703 93 35 93C44.4297 93 52.8683 91.1393 58.8749 88.2218C65.0183 85.2379 68 81.4982 68 78C68 77.363 67.9011 76.7179 67.7023 76.0709C62.6705 82.4616 49.9264 87 35 87C20.0736 87 7.32954 82.4616 2.29772 76.0709ZM66.7228 74C65.3072 76.2066 62.7057 78.3611 58.8749 80.2218C52.8683 83.1393 44.4297 85 35 85C25.5703 85 17.1317 83.1393 11.1251 80.2218C7.29426 78.3611 4.69284 76.2066 3.27715 74C2.42251 72.6679 2 71.3168 2 70C2 69.363 2.09888 68.7179 2.29772 68.0709C7.32954 74.4616 20.0736 79 35 79C49.9264 79 62.6705 74.4616 67.7023 68.0709C67.9011 68.7179 68 69.363 68 70C68 71.3168 67.5775 72.6679 66.7228 74ZM68 62C68 63.3168 67.5775 64.6679 66.7228 66C65.3072 68.2066 62.7057 70.3611 58.8749 72.2218C52.8683 75.1393 44.4297 77 35 77C25.5703 77 17.1317 75.1393 11.1251 72.2218C7.29426 70.3611 4.69284 68.2066 3.27715 66C2.42251 64.6679 2 63.3168 2 62C2 61.363 2.09888 60.7179 2.29772 60.0709C7.32954 66.4616 20.0736 71 35 71C49.9264 71 62.6705 66.4616 67.7023 60.0709C67.9011 60.7179 68 61.363 68 62ZM66.7228 58C67.5775 56.6679 68 55.3168 68 54C68 53.363 67.9011 52.7179 67.7023 52.0709C62.6705 58.4616 49.9264 63 35 63C20.0736 63 7.32954 58.4616 2.29772 52.0709C2.09888 52.7179 2 53.363 2 54C2 55.3168 2.42251 56.6679 3.27715 58C4.69284 60.2066 7.29426 62.3611 11.1251 64.2218C17.1317 67.1393 25.5703 69 35 69C44.4297 69 52.8683 67.1393 58.8749 64.2218C62.7057 62.3611 65.3072 60.2066 66.7228 58ZM23.8034 37.6943L26.4726 39.2352L32.3238 35.8573L34.0559 36.8572L28.2047 40.2351L33.8972 43.5214L36.92 41.7764C39.7414 40.1476 44.3159 40.1476 47.1374 41.7764C49.9588 43.4052 49.9588 46.0461 47.1374 47.6749L44.1146 49.4199L46.7844 50.9612L45.0523 51.9611L42.3825 50.4199L36.1772 54.0022L34.4451 53.0022L40.6504 49.4199L33.8972 45.5213L31.4042 46.9605C28.8757 48.4202 24.7761 48.4202 22.2475 46.9605C19.719 45.5008 19.719 43.1341 22.2475 41.6743L24.7405 40.2351L22.0714 38.6942L23.8034 37.6943ZM23.9796 42.6743L26.4726 41.2351L32.1651 44.5214L29.6721 45.9606C28.1002 46.8681 25.5516 46.8681 23.9796 45.9606C22.4077 45.0531 22.4077 43.5818 23.9796 42.6743ZM42.3825 48.42L35.6293 44.5214L38.6521 42.7763C40.5169 41.6998 43.5404 41.6998 45.4053 42.7763C47.2701 43.8529 47.2701 45.5984 45.4053 46.6749L42.3825 48.42ZM97.8034 8.69428L100.473 10.2352L106.324 6.85731L108.056 7.85724L102.205 11.2351L107.897 14.5214L110.92 12.7764C113.741 11.1476 118.316 11.1476 121.137 12.7764C123.959 14.4052 123.959 17.0461 121.137 18.6749L118.115 20.4199L120.784 21.9612L119.052 22.9611L116.383 21.4199L110.177 25.0022L108.445 24.0022L114.65 20.4199L107.897 16.5213L105.404 17.9605C102.876 19.4202 98.7761 19.4202 96.2475 17.9605C93.719 16.5008 93.719 14.1341 96.2475 12.6743L98.7405 11.2351L96.0714 9.69422L97.8034 8.69428ZM97.9796 13.6743L100.473 12.2351L106.165 15.5214L103.672 16.9606C102.1 17.8681 99.5516 17.8681 97.9796 16.9606C96.4077 16.0531 96.4077 14.5818 97.9796 13.6743ZM116.383 19.42L109.629 15.5214L112.652 13.7763C114.517 12.6998 117.54 12.6998 119.405 13.7763C121.27 14.8529 121.27 16.5984 119.405 17.6749L116.383 19.42Z" fill="url(#paint0_linear_453_2667)"/>
<defs>
<linearGradient id="paint0_linear_453_2667" x1="138" y1="1.45079e-05" x2="157.949" y2="52.1535" gradientUnits="userSpaceOnUse">
<stop stop-color="#8DFE59"/>
<stop offset="0.539062" stop-color="#3ACBF6"/>
<stop offset="1" stop-color="#6055FF"/>
</linearGradient>
</defs>
</svg>
