<svg width="34" height="34" viewBox="0 0 34 34" fill="none" xmlns="http://www.w3.org/2000/svg">
<path d="M18.667 25.3337H15.3337V22.0003H18.667V25.3337ZM18.667 18.667H15.3337V8.667H18.667L18.667 18.667ZM17.0003 33.667C26.2003 33.667 33.667 26.2003 33.667 17.0003C33.667 7.80033 26.2003 0.333668 17.0003 0.333668C7.80033 0.333668 0.333668 7.80033 0.333668 17.0003C0.333668 26.2003 7.80033 33.667 17.0003 33.667ZM17.0003 3.667C24.3503 3.667 30.3337 9.65033 30.3337 17.0003C30.3337 24.3503 24.3503 30.3337 17.0003 30.3337C9.65033 30.3337 3.667 24.3503 3.667 17.0003C3.667 9.65033 9.65033 3.667 17.0003 3.667Z" fill="white"/>
</svg>
