<svg width="20" height="20" viewBox="0 0 20 20" fill="none" xmlns="http://www.w3.org/2000/svg">
<g clip-path="url(#clip0_1728_3010)">
<path fill-rule="evenodd" clip-rule="evenodd" d="M2.5 9.16667H9.16667V2.5H2.5V9.16667ZM4.16667 4.16667H7.5V7.5H4.16667V4.16667ZM2.5 17.4997H9.16667V10.833H2.5V17.4997ZM4.16667 12.4997H7.5V15.833H4.16667V12.4997ZM10.8335 9.16667V2.5H17.5002V9.16667H10.8335ZM12.5002 7.5H15.8335V4.16667H12.5002V7.5ZM17.5002 15.833H15.8335V17.4997H17.5002V15.833ZM10.8335 10.833H12.5002V12.4997H10.8335V10.833ZM14.1667 12.5H12.5V14.1667H14.1667V12.5ZM10.8335 14.167H12.5002V15.833H14.1665V14.167H15.8332V15.8337H14.1667V17.4997H12.5V15.8337H10.8335V14.167ZM15.8332 10.833H14.1665V12.4997H15.8332V10.833ZM15.8335 12.5H17.5002V14.1667H15.8335V12.5Z" fill="url(#paint0_linear_1728_3010)"/>
</g>
<defs>
<linearGradient id="paint0_linear_1728_3010" x1="17.0002" y1="2.99999" x2="2.04526" y2="21.9082" gradientUnits="userSpaceOnUse">
<stop stop-color="#8DFE59"/>
<stop offset="0.539062" stop-color="#3ACBF6"/>
<stop offset="1" stop-color="#6055FF"/>
</linearGradient>
<clipPath id="clip0_1728_3010">
<rect width="20" height="20" fill="white"/>
</clipPath>
</defs>
</svg>
