<svg width="21" height="19" viewBox="0 0 21 19" fill="none" xmlns="http://www.w3.org/2000/svg">
<path d="M10.3039 1.19557C10.3039 1.85451 10.832 2.39122 11.4804 2.39122C15.1562 2.39122 18.1471 5.43084 18.1471 9.16659C18.1471 12.9023 15.1562 15.9419 11.4804 15.9419C7.80457 15.9419 4.81373 12.9023 4.81373 9.16659L6.77451 9.16659L3.63725 4.38398L0.5 9.16659L2.46078 9.16659C2.46078 14.2202 6.50784 18.3333 11.4804 18.3333C16.4529 18.3333 20.5 14.2202 20.5 9.16659C20.5 4.11296 16.4529 -8.0806e-05 11.4804 -8.05886e-05C10.832 -8.05603e-05 10.3039 0.536634 10.3039 1.19557Z" fill="url(#paint0_linear_548_2436)"/>
<defs>
<linearGradient id="paint0_linear_548_2436" x1="0.5" y1="-8.18349e-05" x2="29.3196" y2="20.567" gradientUnits="userSpaceOnUse">
<stop stop-color="#8DFE59"/>
<stop offset="0.539062" stop-color="#3ACBF6"/>
<stop offset="1" stop-color="#6055FF"/>
</linearGradient>
</defs>
</svg>
