<svg width="32" height="32" viewBox="0 0 32 32" fill="none" xmlns="http://www.w3.org/2000/svg">
<circle cx="16" cy="16" r="16" fill="url(#paint0_linear_875_2276)"/>
<path d="M8.73387 13.5114C7.25305 17.4431 9.29549 21.8853 13.2782 23.3149C13.4313 23.4171 13.5845 23.6213 13.5845 23.7745V24.4894C13.5845 24.5915 13.5845 24.6426 13.5334 24.6936C13.4825 24.8978 13.2782 24.9999 13.0739 24.8978C10.2146 23.9788 8.01895 21.7831 7.09987 18.9238C5.56807 14.0732 8.22323 8.91603 13.0739 7.38423C13.125 7.33325 13.2271 7.33325 13.2782 7.33325C13.4825 7.38423 13.5845 7.53741 13.5845 7.74169V8.45649C13.5845 8.71187 13.4825 8.86505 13.2782 8.96713C11.1848 9.73303 9.49977 11.3669 8.73387 13.5114Z" fill="white"/>
<path d="M18.231 7.58851C18.282 7.38423 18.4863 7.28215 18.6906 7.38423C21.4988 8.30331 23.7455 10.4989 24.6646 13.4093C26.1964 18.26 23.5412 23.4171 18.6906 24.9489C18.6395 24.9999 18.5374 24.9999 18.4863 24.9999C18.282 24.9489 18.1799 24.7958 18.1799 24.5915V23.8767C18.1799 23.6213 18.282 23.4681 18.4863 23.366C20.5797 22.6001 22.2647 20.9663 23.0306 18.8217C24.5114 14.89 22.469 10.4478 18.4863 9.01823C18.3331 8.91603 18.1799 8.71187 18.1799 8.50759V7.79279C18.1799 7.69059 18.1799 7.63961 18.231 7.58851Z" fill="white"/>
<path d="M16.0341 15.2983C18.1786 15.5535 19.2509 16.1662 19.2509 17.9533C19.2509 19.3319 18.2297 20.4042 16.698 20.6596V21.885C16.6469 22.1403 16.4937 22.2935 16.2894 22.2935H15.5235C15.2683 22.2424 15.1151 22.0892 15.1151 21.885V20.6596C13.4301 20.4042 12.6131 19.4851 12.409 18.2087V18.1576C12.409 17.9533 12.5622 17.8001 12.7663 17.8001H13.6344C13.7876 17.8001 13.9408 17.9023 13.9917 18.1065C14.1449 18.8724 14.6044 19.4341 15.9321 19.4341C16.9021 19.4341 17.617 18.8725 17.617 18.0555C17.617 17.2385 17.1575 16.9322 15.7278 16.6769C13.5833 16.4215 12.5622 15.7578 12.5622 14.0728C12.5622 12.7963 13.5322 11.7751 15.064 11.5708V10.3965C15.1151 10.1411 15.2683 9.98793 15.4725 9.98793H16.2384C16.4937 10.039 16.6469 10.1922 16.6469 10.3965V11.6219C17.8212 11.724 18.7402 12.592 18.9445 13.7154V13.7665C18.9445 13.9706 18.7913 14.1238 18.5871 14.1238H17.7702C17.617 14.1238 17.4638 14.0217 17.4127 13.8685C17.1575 13.1026 16.6469 12.7963 15.7278 12.7963C14.7066 12.7963 14.196 13.2557 14.196 13.9706C14.196 14.6855 14.5024 15.094 16.0341 15.2983Z" fill="white"/>
<defs>
<linearGradient id="paint0_linear_875_2276" x1="39.04" y1="7.68" x2="22.8571" y2="38.1832" gradientUnits="userSpaceOnUse">
<stop stop-color="#8DFE59"/>
<stop offset="0.539062" stop-color="#3ACBF6"/>
<stop offset="1" stop-color="#6055FF"/>
</linearGradient>
</defs>
</svg>
