<svg width="32" height="32" viewBox="0 0 32 32" fill="none" xmlns="http://www.w3.org/2000/svg">
<circle cx="16" cy="16" r="16" fill="url(#paint0_linear_875_2281)"/>
<path fill-rule="evenodd" clip-rule="evenodd" d="M18.026 17.094C17.9408 17.1003 17.5004 17.1266 16.5181 17.1266C15.7368 17.1266 15.1821 17.1032 14.9875 17.094C11.9682 16.9611 9.71452 16.4355 9.71452 15.8063C9.71452 15.177 11.9682 14.6521 14.9875 14.5171V16.5705C15.185 16.5847 15.7503 16.6181 16.5316 16.6181C17.4692 16.6181 17.9386 16.579 18.0232 16.5712V14.5185C21.0361 14.6528 23.2848 15.1784 23.2848 15.8063C23.2848 16.4341 21.0368 16.9597 18.0232 17.0932L18.026 17.094ZM18.026 14.3062V12.4687H22.2307V9.66675H10.7828V12.4687H14.9868V14.3055C11.5697 14.4624 9 15.1393 9 15.9504C9 16.7616 11.5697 17.4377 14.9868 17.5954V23.4835H18.0253V17.5933C21.4345 17.4363 24 16.7601 24 15.9497C24 15.1393 21.4367 14.4631 18.0253 14.3055L18.026 14.3062Z" fill="white"/>
<defs>
<linearGradient id="paint0_linear_875_2281" x1="39.04" y1="7.68" x2="22.8571" y2="38.1832" gradientUnits="userSpaceOnUse">
<stop stop-color="#8DFE59"/>
<stop offset="0.539062" stop-color="#3ACBF6"/>
<stop offset="1" stop-color="#6055FF"/>
</linearGradient>
</defs>
</svg>
